<svg width="54" height="51" viewBox="0 0 54 51" fill="none" xmlns="http://www.w3.org/2000/svg">
<path d="M52.9752 47.9998C49.2434 41.5711 43.27 36.7461 36.2002 34.4498C39.5889 32.4347 42.2223 29.3627 43.6958 25.7059C45.1693 22.049 45.4015 18.0095 44.3565 14.2079C43.3116 10.4063 41.0475 7.05295 37.9119 4.66295C34.7763 2.27295 30.9428 0.978516 27.0002 0.978516C23.0577 0.978516 19.2241 2.27295 16.0886 4.66295C12.953 7.05295 10.6888 10.4063 9.64393 14.2079C8.59902 18.0095 8.83114 22.049 10.3047 25.7059C11.7782 29.3627 14.4115 32.4347 17.8002 34.4498C10.7305 36.7461 4.75708 41.5711 1.02524 47.9998C0.842018 48.3012 0.745117 48.6471 0.745117 48.9998C0.745117 49.3525 0.842018 49.6984 1.02524 49.9998C1.19618 50.3063 1.44666 50.5609 1.75026 50.7369C2.05386 50.9129 2.39933 51.0037 2.75024 50.9998H51.2502C51.6011 51.0037 51.9466 50.9129 52.2502 50.7369C52.5538 50.5609 52.8043 50.3063 52.9752 49.9998C53.1585 49.6984 53.2554 49.3525 53.2554 48.9998C53.2554 48.6471 53.1585 48.3012 52.9752 47.9998Z" fill="black"/>
</svg>
