<svg id="Layer_1" data-name="Layer 1" xmlns="http://www.w3.org/2000/svg" viewBox="0 0 255.58 302.9"><defs><style>.cls-1{fill:none;stroke:#35524a;stroke-linecap:round;stroke-linejoin:round;stroke-width:19px;}</style></defs><path class="cls-1" d="M630.86,632.3l27.76,27.76" transform="translate(-482.33 -425.49)"/><path class="cls-1" d="M716.58,718.89H503.65a12,12,0,0,1-8.35-3.47,11.82,11.82,0,0,1-3.47-8.36V446.82a11.82,11.82,0,0,1,3.47-8.36,11.94,11.94,0,0,1,8.35-3.47h142l82.8,82.8V707.06a11.54,11.54,0,0,1-3.47,8.36A11.82,11.82,0,0,1,716.58,718.89Z" transform="translate(-482.33 -425.49)"/><path class="cls-1" d="M626.6,435v88.72h88.72" transform="translate(-482.33 -425.49)"/><path class="cls-1" d="M602.15,637a35.49,35.49,0,1,0-35.48-35.49A35.49,35.49,0,0,0,602.15,637Z" transform="translate(-482.33 -425.49)"/></svg>