<svg id="Layer_1" data-name="Layer 1" xmlns="http://www.w3.org/2000/svg" viewBox="0 0 389.63 230.79"><defs><style>.cls-1{fill:none;stroke:#35524a;stroke-linecap:round;stroke-linejoin:round;stroke-width:19px;}</style></defs><path class="cls-1" d="M597.89,650.35a39.71,39.71,0,1,0-39.71-39.71A39.71,39.71,0,0,0,597.89,650.35Z" transform="translate(-405.19 -495.25)"/><path class="cls-1" d="M414.69,610.64,533.82,504.75" transform="translate(-405.19 -495.25)"/><path class="cls-1" d="M785.31,605,666.18,710.86" transform="translate(-405.19 -495.25)"/><path class="cls-1" d="M533.82,716.54,414.69,610.64" transform="translate(-405.19 -495.25)"/><path class="cls-1" d="M785.31,616.33,666.18,510.43" transform="translate(-405.19 -495.25)"/><path class="cls-1" d="M772.08,504.75H427.92A13.23,13.23,0,0,0,414.69,518V703.3a13.23,13.23,0,0,0,13.23,13.24H772.08a13.23,13.23,0,0,0,13.23-13.24V518A13.23,13.23,0,0,0,772.08,504.75Z" transform="translate(-405.19 -495.25)"/></svg>