<svg width="52" height="39" viewBox="0 0 52 39" fill="none" xmlns="http://www.w3.org/2000/svg">
<path d="M28.7298 4.79268V26.3641C28.7298 29.4847 29.9694 32.4775 32.176 34.6841C34.3826 36.8907 37.3754 38.1303 40.496 38.1303C41.0161 38.1303 41.5149 37.9237 41.8827 37.556C42.2505 37.1882 42.4571 36.6894 42.4571 36.1693C42.4571 35.6492 42.2505 35.1504 41.8827 34.7826C41.5149 34.4149 41.0161 34.2083 40.496 34.2083C38.4176 34.2018 36.4262 33.3733 34.9565 31.9036C33.4868 30.434 32.6583 28.4425 32.6519 26.3641V24.4031H47.3597C48.3999 24.4031 49.3975 23.9899 50.133 23.2543C50.8685 22.5188 51.2817 21.5212 51.2817 20.481V4.79268C51.2817 3.75248 50.8685 2.75489 50.133 2.01936C49.3975 1.28382 48.3999 0.870605 47.3597 0.870605H32.6519C31.6117 0.870605 30.6141 1.28382 29.8785 2.01936C29.143 2.75489 28.7298 3.75248 28.7298 4.79268ZM4.2168 0.870605H18.9246C19.9648 0.870605 20.9624 1.28382 21.6979 2.01936C22.4335 2.75489 22.8467 3.75248 22.8467 4.79268V20.481C22.8467 21.5212 22.4335 22.5188 21.6979 23.2543C20.9624 23.9899 19.9648 24.4031 18.9246 24.4031H4.2168V26.3641C4.22327 28.4425 5.05178 30.434 6.52144 31.9036C7.99111 33.3733 9.98255 34.2018 12.061 34.2083C12.5811 34.2083 13.0799 34.4149 13.4476 34.7826C13.8154 35.1504 14.022 35.6492 14.022 36.1693C14.022 36.6894 13.8154 37.1882 13.4476 37.556C13.0799 37.9237 12.5811 38.1303 12.061 38.1303C8.94036 38.1303 5.94757 36.8907 3.74097 34.6841C1.53437 32.4775 0.294724 29.4847 0.294724 26.3641V4.79268C0.294724 3.75248 0.707943 2.75489 1.44347 2.01936C2.179 1.28382 3.1766 0.870605 4.2168 0.870605Z" fill="#937114"/>
</svg>
