<svg width="207" height="260" viewBox="0 0 207 260" fill="none" xmlns="http://www.w3.org/2000/svg">
<path d="M180.623 153.624C167.76 166.379 151.375 174.992 133.576 178.356C115.777 181.72 97.3781 179.68 80.748 172.499L15.748 247.749C15.623 247.999 15.373 248.124 15.248 248.249C11.5433 251.968 7.14071 254.919 2.29287 256.932C-2.55496 258.946 -7.75266 259.982 -13.002 259.982C-18.2514 259.982 -23.4491 258.946 -28.2969 256.932C-33.1447 254.919 -37.5473 251.968 -41.252 248.249C-44.971 244.544 -47.9219 240.142 -49.9354 235.294C-51.9489 230.446 -52.9854 225.248 -52.9854 219.999C-52.9854 214.75 -51.9489 209.552 -49.9354 204.704C-47.9219 199.856 -44.971 195.454 -41.252 191.749L-40.752 191.249L34.498 126.249C27.2498 109.737 25.1287 91.4292 28.4098 73.6977C31.6908 55.9663 40.2226 39.6293 52.8991 26.8046C65.5757 13.9798 81.8124 5.25874 99.5045 1.77188C117.197 -1.71498 135.528 0.193177 152.123 7.24898C153.624 7.87949 154.946 8.87134 155.971 10.1363C156.996 11.4012 157.692 12.8999 157.998 14.499C158.313 16.1096 158.227 17.7731 157.748 19.3427C157.268 20.9123 156.41 22.3397 155.248 23.499L106.623 72.124L111.248 95.749L134.873 100.374L183.498 51.749C184.657 50.5873 186.085 49.7287 187.654 49.2491C189.224 48.7695 190.887 48.6836 192.498 48.999C194.097 49.3047 195.596 50.0011 196.861 51.0261C198.126 52.0511 199.117 53.373 199.748 54.874C206.804 71.3585 208.754 89.5806 205.345 107.185C201.935 124.789 193.323 140.966 180.623 153.624Z" fill="#E4DBC4"/>
</svg>
